<svg xmlns="http://www.w3.org/2000/svg" width="960" height="304" viewBox="0 0 960 304" role="img" aria-labelledby="title desc">
<title id="title">InkeyP's Contribution Graph</title>
<desc id="desc">2026-08-17 to 2026-09-16. 2026-08-17: 0; 2026-08-18: 0; 2026-08-19: 0; 2026-08-20: 3; 2026-08-21: 0; 2026-08-22: 1; 2026-08-23: 4; 2026-08-24: 0; 2026-08-25: 1; 2026-08-26: 0; 2026-08-27: 0; 2026-08-28: 0; 2026-08-29: 0; 2026-08-30: 0; 2026-08-31: 0; 2026-09-01: 0; 2026-09-02: 0; 2026-09-03: 0; 2026-09-04: 0; 2026-09-05: 0; 2026-09-06: 0; 2026-09-07: 0; 2026-09-08: 12; 2026-09-09: 1; 2026-09-10: 1; 2026-09-11: 0; 2026-09-12: 0; 2026-09-13: 0; 2026-09-14: 1; 2026-09-15: 0; 2026-09-16: 0</desc>
<rect width="960" height="304" rx="22" fill="#e9edf5"/>
<g font-family="Segoe UI, Ubuntu, sans-serif" fill="#3a4054" font-size="12">
<text x="32" y="39" fill="#256b83" font-size="20" font-weight="600">InkeyP's Contribution Graph</text>
<path d="M64 244H895" stroke="#3a4054" opacity=".12"/><text x="49" y="248" text-anchor="end">0</text><path d="M64 202.5H895" stroke="#3a4054" opacity=".12"/><text x="49" y="206.5" text-anchor="end">3</text><path d="M64 161H895" stroke="#3a4054" opacity=".12"/><text x="49" y="165" text-anchor="end">6</text><path d="M64 119.5H895" stroke="#3a4054" opacity=".12"/><text x="49" y="123.5" text-anchor="end">9</text><path d="M64 78H895" stroke="#3a4054" opacity=".12"/><text x="49" y="82" text-anchor="end">12</text><polygon points="64,244 64.0,244.0 91.7,244.0 119.4,244.0 147.1,202.5 174.8,244.0 202.5,230.2 230.2,188.7 257.9,244.0 285.6,230.2 313.3,244.0 341.0,244.0 368.7,244.0 396.4,244.0 424.1,244.0 451.8,244.0 479.5,244.0 507.2,244.0 534.9,244.0 562.6,244.0 590.3,244.0 618.0,244.0 645.7,244.0 673.4,78.0 701.1,230.2 728.8,230.2 756.5,244.0 784.2,244.0 811.9,244.0 839.6,230.2 867.3,244.0 895.0,244.0 895,244" fill="#256b83" opacity=".1"/>
<polyline points="64.0,244.0 91.7,244.0 119.4,244.0 147.1,202.5 174.8,244.0 202.5,230.2 230.2,188.7 257.9,244.0 285.6,230.2 313.3,244.0 341.0,244.0 368.7,244.0 396.4,244.0 424.1,244.0 451.8,244.0 479.5,244.0 507.2,244.0 534.9,244.0 562.6,244.0 590.3,244.0 618.0,244.0 645.7,244.0 673.4,78.0 701.1,230.2 728.8,230.2 756.5,244.0 784.2,244.0 811.9,244.0 839.6,230.2 867.3,244.0 895.0,244.0" fill="none" stroke="#256b83" stroke-width="2.5" stroke-linejoin="round"/>
<circle cx="64.0" cy="244.0" r="3" fill="#408774"><title>2026-08-17: 0 contributions</title></circle><circle cx="91.7" cy="244.0" r="3" fill="#408774"><title>2026-08-18: 0 contributions</title></circle><circle cx="119.4" cy="244.0" r="3" fill="#408774"><title>2026-08-19: 0 contributions</title></circle><circle cx="147.1" cy="202.5" r="3" fill="#408774"><title>2026-08-20: 3 contributions</title></circle><circle cx="174.8" cy="244.0" r="3" fill="#408774"><title>2026-08-21: 0 contributions</title></circle><circle cx="202.5" cy="230.2" r="3" fill="#408774"><title>2026-08-22: 1 contributions</title></circle><circle cx="230.2" cy="188.7" r="3" fill="#408774"><title>2026-08-23: 4 contributions</title></circle><circle cx="257.9" cy="244.0" r="3" fill="#408774"><title>2026-08-24: 0 contributions</title></circle><circle cx="285.6" cy="230.2" r="3" fill="#408774"><title>2026-08-25: 1 contributions</title></circle><circle cx="313.3" cy="244.0" r="3" fill="#408774"><title>2026-08-26: 0 contributions</title></circle><circle cx="341.0" cy="244.0" r="3" fill="#408774"><title>2026-08-27: 0 contributions</title></circle><circle cx="368.7" cy="244.0" r="3" fill="#408774"><title>2026-08-28: 0 contributions</title></circle><circle cx="396.4" cy="244.0" r="3" fill="#408774"><title>2026-08-29: 0 contributions</title></circle><circle cx="424.1" cy="244.0" r="3" fill="#408774"><title>2026-08-30: 0 contributions</title></circle><circle cx="451.8" cy="244.0" r="3" fill="#408774"><title>2026-08-31: 0 contributions</title></circle><circle cx="479.5" cy="244.0" r="3" fill="#408774"><title>2026-09-01: 0 contributions</title></circle><circle cx="507.2" cy="244.0" r="3" fill="#408774"><title>2026-09-02: 0 contributions</title></circle><circle cx="534.9" cy="244.0" r="3" fill="#408774"><title>2026-09-03: 0 contributions</title></circle><circle cx="562.6" cy="244.0" r="3" fill="#408774"><title>2026-09-04: 0 contributions</title></circle><circle cx="590.3" cy="244.0" r="3" fill="#408774"><title>2026-09-05: 0 contributions</title></circle><circle cx="618.0" cy="244.0" r="3" fill="#408774"><title>2026-09-06: 0 contributions</title></circle><circle cx="645.7" cy="244.0" r="3" fill="#408774"><title>2026-09-07: 0 contributions</title></circle><circle cx="673.4" cy="78.0" r="3" fill="#408774"><title>2026-09-08: 12 contributions</title></circle><circle cx="701.1" cy="230.2" r="3" fill="#408774"><title>2026-09-09: 1 contributions</title></circle><circle cx="728.8" cy="230.2" r="3" fill="#408774"><title>2026-09-10: 1 contributions</title></circle><circle cx="756.5" cy="244.0" r="3" fill="#408774"><title>2026-09-11: 0 contributions</title></circle><circle cx="784.2" cy="244.0" r="3" fill="#408774"><title>2026-09-12: 0 contributions</title></circle><circle cx="811.9" cy="244.0" r="3" fill="#408774"><title>2026-09-13: 0 contributions</title></circle><circle cx="839.6" cy="230.2" r="3" fill="#408774"><title>2026-09-14: 1 contributions</title></circle><circle cx="867.3" cy="244.0" r="3" fill="#408774"><title>2026-09-15: 0 contributions</title></circle><circle cx="895.0" cy="244.0" r="3" fill="#408774"><title>2026-09-16: 0 contributions</title></circle><text x="64" y="271" text-anchor="middle">08-17</text><text x="202.5" y="271" text-anchor="middle">08-22</text><text x="341" y="271" text-anchor="middle">08-27</text><text x="479.5" y="271" text-anchor="middle">09-01</text><text x="618" y="271" text-anchor="middle">09-06</text><text x="756.5" y="271" text-anchor="middle">09-11</text><text x="895" y="271" text-anchor="middle">09-16</text></g></svg>
